<?xml version="1.0" encoding="utf-8"?>
<!-- Generator: Adobe Illustrator 24.2.1, SVG Export Plug-In . SVG Version: 6.00 Build 0)  -->
<!DOCTYPE svg PUBLIC "-//W3C//DTD SVG 1.1//EN" "http://www.w3.org/Graphics/SVG/1.1/DTD/svg11.dtd" [
	<!ENTITY ns_extend "http://ns.adobe.com/Extensibility/1.0/">
	<!ENTITY ns_ai "http://ns.adobe.com/AdobeIllustrator/10.0/">
	<!ENTITY ns_graphs "http://ns.adobe.com/Graphs/1.0/">
	<!ENTITY ns_vars "http://ns.adobe.com/Variables/1.0/">
	<!ENTITY ns_imrep "http://ns.adobe.com/ImageReplacement/1.0/">
	<!ENTITY ns_sfw "http://ns.adobe.com/SaveForWeb/1.0/">
	<!ENTITY ns_custom "http://ns.adobe.com/GenericCustomNamespace/1.0/">
	<!ENTITY ns_adobe_xpath "http://ns.adobe.com/XPath/1.0/">
]>
<svg version="1.1" id="Layer_1" xmlns:x="&ns_extend;" xmlns:i="&ns_ai;" xmlns:graph="&ns_graphs;"
	 xmlns="http://www.w3.org/2000/svg" xmlns:xlink="http://www.w3.org/1999/xlink" x="0px" y="0px" width="2048px" height="2048px"
	 viewBox="0 0 2048 2048" style="enable-background:new 0 0 2048 2048;" xml:space="preserve">
<style type="text/css">
	.Drop_x0020_Shadow{fill:none;}
	.Round_x0020_Corners_x0020_2_x0020_pt{fill:#FFFFFF;stroke:#231F20;stroke-miterlimit:10;}
	.Live_x0020_Reflect_x0020_X{fill:none;}
	.Bevel_x0020_Soft{fill:url(#SVGID_1_);}
	.Dusk{fill:#FFFFFF;}
	.Foliage_GS{fill:#FFDD00;}
	.Pompadour_GS{fill-rule:evenodd;clip-rule:evenodd;fill:#44ADE2;}
	.st0{fill:#D4F9F3;}
	.st1{fill:#FDEBE8;}
	.st2{fill:#00BEA5;}
	.st3{fill:#011E3E;}
	.st4{fill:#FE4300;}
	.st5{fill:#F7B4BB;}
	.st6{fill:#2D203E;}
	.st7{fill:#EDFCF9;}
</style>
<metadata>
	<sfw  xmlns="&ns_sfw;">
		<slices></slices>
		<sliceSourceBounds  bottomLeftOrigin="true" height="1621.1" width="1173.3" x="437.4" y="-1834.5"></sliceSourceBounds>
	</sfw>
</metadata>
<linearGradient id="SVGID_1_" gradientUnits="userSpaceOnUse" x1="0" y1="0" x2="0.7071" y2="0.7071">
	<stop  offset="0" style="stop-color:#DEDFE3"/>
	<stop  offset="0.1783" style="stop-color:#DADBDF"/>
	<stop  offset="0.3611" style="stop-color:#CECFD3"/>
	<stop  offset="0.546" style="stop-color:#B9BCBF"/>
	<stop  offset="0.7324" style="stop-color:#9CA0A2"/>
	<stop  offset="0.9181" style="stop-color:#787D7E"/>
	<stop  offset="1" style="stop-color:#656B6C"/>
</linearGradient>
<g>
	<path class="st0" d="M1511.4,1142.5c-25-10.5-49.3-22.5-72.6-36.3c-107.1-63.4-372.5-229.4-455.9-363.3
		c-105.4-169.3-277.8-239.5-380-86.2s-63.9,712.2,341.7,865.5C1339.4,1671.3,1822,1272.7,1511.4,1142.5z"/>
	<ellipse class="st0" cx="1124" cy="1771.6" rx="482.1" ry="62.9"/>
	<g>
		<g>
			<rect x="920.8" y="1666.5" class="st1" width="75.7" height="58"/>
			<path class="st2" d="M998.4,1692.1l-0.6,46.4l-0.2,15.6l-151.4,17c-4.3,0.5-7.7-1.8-9.2-5c-1.7-3.3-1.4-7.6,1.8-10.7
				c22.3-21.7,63.8-47.2,63.8-47.2s2.4-18.5,12.1-27.4c9.7-8.8,14.5,16.9,14.5,16.9L998.4,1692.1z"/>
			
				<rect x="1194.4" y="1661.4" transform="matrix(0.9914 -0.131 0.131 0.9914 -210.7822 175.9532)" class="st1" width="75.7" height="58"/>
			<path class="st2" d="M1350.6,1765.8c-2,3.2-5.6,5.4-10.1,4.9l-147.3-16.5l-0.2-15.3l-0.6-46.6l2,0.2l67.2,5.5
				c0,0,2.5-13.3,7.5-17.5c1.9-1.6,4.3-1.9,7,0.6c9.7,8.9,12.1,27.4,12.1,27.4s37.7,23.1,60.6,44.1
				C1352.9,1756.2,1353.1,1761.8,1350.6,1765.8z"/>
			<polygon class="st3" points="1050.6,1672.3 1106.3,1229.8 1156.5,1672.3 1270.8,1672.3 1208.9,1057.6 998.5,1055.2 917.2,1672.3 
							"/>
			<rect x="1000.1" y="1076.8" class="st4" width="214.5" height="20.2"/>
			<path class="st2" d="M1140.9,756.5l-1.4-4.1c0,0,0.3-0.1,0.9-0.2C1140.5,753.4,1140.7,754.8,1140.9,756.5z"/>
			<path class="st1" d="M1037.3,757.8l2.8-4.1l106.1-1c0,0,34.2,195.1,18.7,311.7h-155.5L1037.3,757.8z"/>
			<path class="st2" d="M979.1,939.2c0,0-16.7,157.3-34.1,208.6c-2.5,7.5,2.9,15.2,10.8,15.4l102.2,2.4c7,0.2,12.5-5.8,11.9-12.7
				l-21.7-251.3L979.1,939.2z"/>
			<path class="st5" d="M1082.8,941.2c0,0-9.3-3.2-13.8-7.4c-4.5-4.2-22.2-38.3-28-35.6c-5.8,2.7-3.9,19.7,3.3,28.8
				c6.5,8.2-49.4-2.2-66.3,17.2c-2.4,2.8-0.1,7.2,3.6,6.9l29.3-2.4c0,0-16.7,6.5-7,17.5c0,0-4.2,7.7,2.7,11.4c0,0-1.2,8.8,5.1,10.9
				c0,0-1,9,9,8c10-1.1,15.2-7.7,26.8-8.5s98.3-3.1,98.3-3.1l3.7-43.5L1082.8,941.2z"/>
			<path class="st2" d="M1282.5,958.7c-0.8,0.5-2,1.2-3.4,2.1c3.3,75.7-5.9,150.5-9.8,184c-1.2,10.4-9.9,18.2-20.4,18.4l-77.7,1.2
				c-12.7,0.2-22.7-11-21-23.6l18.2-133.3c-39.4,8.8-86,2.1-86,2.1l5.2-69.4l74.6-3.1c0-8.2-17.3-147.4-21.4-180.4
				c-0.2-1.7-0.4-3.2-0.5-4.3c2.5-0.4,10.1-1.7,20.5-2.2c29.6-1.5,81.7,2.7,102,46.9C1291.8,860.2,1290.8,953.5,1282.5,958.7z"/>
			<path class="st2" d="M1160.8,750.1c-10.4,0.5-18,1.7-20.5,2.2c-0.2-1.8-0.3-2.7-0.3-2.7C1147.3,749.2,1154.2,749.4,1160.8,750.1z
				"/>
			<path class="st3" d="M1015.1,671.1c0,0-21.8-101,23.8-108.8l18.7-0.5c0,0,16.1-32.6,22.8-22.8c6.7,9.8,2.1,16.6,2.1,16.6
				s62.2-47.2,66.3-25.4c4.1,21.8-14.5,30.6-14.5,30.6s71-7.8,46.6,31.1l-31.6,9.8c0,0,7.8,48.7-3.6,57
				c-11.4,8.3-65.3,24.4-65.3,24.4s-16.1,5.2-25.4,6.7s-8.8,1.6-18.1,1c-9.3-0.5-13.5-2.1-14.5-3.6
				C1021.3,685.6,1015.1,671.1,1015.1,671.1z"/>
			<path class="st5" d="M1128,602.8c0,0,51.9,93.5-1.4,127.4v23.5h-86.6v-44.3c0,0-42.9,5.5-37.4-24.2s29.1-11.8,29.1-11.8l4.2-72
				L1128,602.8z"/>
			<path class="st5" d="M1073.5,777c0,0,3.1-9.4,2.5-15.5c-0.6-6.1-16.9-40.9-11.2-43.9c5.6-3,18,8.9,20.9,20.2
				c2.6,10.2,28.3-40.5,54-42.1c3.7-0.2,5.8,4.2,3.3,7l-19.7,21.8c0,0,15.3-9.3,18.2,5.1c0,0,8.7,1.4,7.4,9.1c0,0,7.7,4.4,5.6,10.7
				c0,0,7.8,4.7,0.8,12c-7,7.3-15.4,7.4-23,16.1c-7.6,8.7-62.3,76.2-62.3,76.2l-36.8-23.5L1073.5,777z"/>
			<path class="st2" d="M1037.3,757.8v66.8l55.1,38.8c0,0-95.7,194-158.8,85.7c0,0-28.9-67.7,9-117.3
				C980.4,782.2,1037.3,757.8,1037.3,757.8z"/>
			<path class="st6" d="M981.6,983.2l-0.3-1.3c31.6-7.4,60-39.3,78.2-64.7c18.2-25.5,30.2-49.7,32-53.5l-54.1-38.2l-67.9,62.7
				l-0.9-1l68.7-63.5l56,39.5l-0.2,0.5c-0.1,0.3-12.6,26.5-32.4,54.2C1042.2,943.5,1013.6,975.6,981.6,983.2z"/>
			<path class="st6" d="M1059.3,881.1c-3.8-13.6-40.5-38.2-40.9-38.5l0.8-1.1c1.5,1,37.6,25.2,41.5,39.2L1059.3,881.1z"/>
			<g>
				<path class="st6" d="M1122.6,789.4l-1-0.9l16.5-17.5l0.2-0.1c8.8-2.5,16.4-10,16.5-10.1c2.1-2,3-3.9,2.8-5.8
					c-0.3-3.1-3.5-5.1-3.5-5.1l-0.4-0.3l0.1-0.5c1.8-7-4.9-9.8-5.2-9.9l-0.5-0.2l0-0.5c0.2-2.4-0.3-4.4-1.6-5.8
					c-2-2.3-5.2-2.5-5.2-2.5l-0.5,0l-0.1-0.5c-0.5-3.4-1.9-5.6-4-6.7c-4.9-2.4-12.6,1.8-12.7,1.9l-3,1.7l2.1-2.7
					c0.1-0.1,5.8-7.4,15.5-16.9c4.4-4.3,4.9-6.9,4.5-8.2c-0.4-1.6-2.2-2.2-2.5-2.3c-14.2-1.9-39.6,28.4-47.9,38.4
					c-1.6,1.9-2.6,3.1-3.1,3.5c-1.2,1.1-2.3,1.6-3.2,1.3c-1-0.3-1.4-1.3-1.5-1.6c-6.8-14.6-12.5-18.9-16-19.9
					c-2.4-0.7-3.8,0.1-3.8,0.1c-4,2.9,4.6,25.7,10.9,39.4l-1.2,0.6c-1.7-3.7-16.7-36.5-10.4-41.1c0.1-0.1,1.9-1.2,4.9-0.3
					c3.8,1.1,9.9,5.6,17,20.7l0,0.1c0,0,0.2,0.6,0.5,0.7c0.2,0.1,0.8,0.1,1.9-1c0.4-0.4,1.5-1.7,3-3.4c9.4-11.2,34.2-40.9,49.2-38.8
					l0.1,0c0.1,0,2.8,0.8,3.5,3.2c0.7,2.5-1,5.7-4.9,9.5c-6.4,6.3-11.1,11.6-13.5,14.5c2.9-1.1,7.6-2.4,11.2-0.6
					c2.5,1.2,4.1,3.6,4.7,7.2c1.1,0.2,3.7,0.8,5.6,2.9c1.4,1.6,2.1,3.8,1.9,6.4c1.6,0.8,7,4.1,5.6,10.9c1,0.7,3.4,2.8,3.7,5.8
					c0.2,2.3-0.8,4.7-3.2,6.9c-0.3,0.3-7.8,7.7-16.9,10.3L1122.6,789.4z"/>
				
					<rect x="1121.2" y="734.9" transform="matrix(0.8321 -0.5547 0.5547 0.8321 -217.894 751.5947)" class="st6" width="22" height="1.4"/>
				
					<rect x="1129.7" y="743.4" transform="matrix(0.8515 -0.5244 0.5244 0.8515 -220.8681 708.2834)" class="st6" width="20.7" height="1.4"/>
				
					<rect x="1134.8" y="753.3" transform="matrix(0.8977 -0.4406 0.4406 0.8977 -215.0334 581.6001)" class="st6" width="20.6" height="1.4"/>
			</g>
			<path class="st6" d="M1162.3,937.6l-0.1-1.3l37.5-2.7c0.9-6.7,9.7-74.6-11.7-99.1l1-0.9c9.6,11,14.5,31.3,14.6,60.4
				c0.1,21.6-2.7,40.2-2.7,40.3l-0.1,0.5L1162.3,937.6z"/>
			<path class="st6" d="M1121.3,1012.4c-21.9,0-38.6-2.2-38.9-2.2l-0.6-0.1l5.2-70.1l1.3,0.1l-5.1,68.8c6.1,0.8,55.5,6.4,94.4-4.2
				c53.3-14.5,95.8-40.1,96.2-40.3l0.7,1.2c-0.4,0.3-43.1,26-96.6,40.5C1159.6,1011,1138.8,1012.4,1121.3,1012.4z"/>
			
				<rect x="1072.8" y="973" transform="matrix(7.180244e-02 -0.9974 0.9974 7.180244e-02 54.7214 2006.2201)" class="st6" width="64.9" height="1.4"/>
			<path class="st6" d="M1105.7,692.1c-2.5,0-5.4-0.6-8.1-2.7l0.8-1.1c6.2,4.7,13.8,1,14.4,0.7c3.5-2.7,5.4-6.2,5.7-10.4
				c0.8-13.4-15.6-29.9-15.8-30.1l1-1c0.7,0.7,17.1,17,16.2,31.1c-0.3,4.6-2.4,8.4-6.2,11.4l-0.1,0.1
				C1113.3,690.3,1110,692.1,1105.7,692.1z"/>
			<circle class="st3" cx="1068" cy="643.6" r="5.5"/>
			<path class="st3" d="M1054.8,633.3c0,0,11.7-5.2,24.5-1.4s-1.7-12.4-9.7-9c-7.9,3.5-22.4-0.3-15.8,10.8L1054.8,633.3z"/>
			<circle class="st3" cx="1119.8" cy="639.8" r="5.5"/>
			<path class="st3" d="M1106.7,629.5c0,0,11.7-5.2,24.5-1.4c12.8,3.8-1.7-12.4-9.7-9c-7.9,3.5-22.4-0.3-15.8,10.8L1106.7,629.5z"/>
			<path class="st6" d="M1087.2,713.1l-1.2-0.6c0.2-0.5,5.8-11.9,15.2-14.4c4.3-1.1,8.6-0.2,13,2.7l-0.8,1.1c-4-2.7-8-3.6-11.9-2.5
				C1092.8,701.8,1087.3,713,1087.2,713.1z"/>
			<path class="st6" d="M1035.9,701.8l-1.2-0.6c0.3-0.5,6.6-13.6-8.2-23.3c-3.6-2.4-6.7-2.9-9.1-1.7c-5.9,3-6.6,15.7-6.6,15.9
				l-1.4-0.1c0-0.6,0.7-13.6,7.4-17c2.9-1.5,6.4-0.9,10.4,1.8C1043.1,687.1,1036,701.6,1035.9,701.8z"/>
			<path class="st6" d="M1021.6,687.8l-1.3-0.3c0.1-0.3,1.9-7,6.2-7.9c2.7-0.5,5.8,1.4,9,5.7l-1.1,0.8c-2.9-3.9-5.5-5.6-7.6-5.2
				C1023.3,681.7,1021.7,687.8,1021.6,687.8z"/>
			<path class="st6" d="M967.1,868l-0.8-1.1c13.3-9.9,33.3-9.2,34.1-9.2l-0.1,1.4C1000.1,859.1,979.9,858.4,967.1,868z"/>
			<path class="st6" d="M1230.8,945.6c-10.3-13.7-30.2-10.8-30.5-10.8l-0.2-1.3c0.2,0,20.9-3,31.7,11.3L1230.8,945.6z"/>
			<path class="st6" d="M1227.8,933.3c-10.5-9.2-26.5-0.1-26.7-0.1l-0.7-1.2c0.2-0.1,17-9.6,28.2,0.2L1227.8,933.3z"/>
			<rect x="1087.1" y="1072.7" class="st1" width="42.5" height="30.1"/>
		</g>
		<g>
			
				<rect x="754.6" y="1418" transform="matrix(0.1094 -0.994 0.994 0.1094 -512.5925 2265.0447)" class="st1" width="506.1" height="1.1"/>
			<polygon class="st1" points="1207.5,1674.1 1156.9,1163.3 1158,1163.2 1208.7,1674 			"/>
			<polygon class="st1" points="1124.5,1205.7 1086.7,1205.7 1086.7,1108.5 1087.9,1108.5 1087.9,1204.6 1123.4,1204.6 
				1123.4,1159.2 1124.5,1159.2 			"/>
		</g>
		<path class="st3" d="M1350.6,1765.9c-2,3.2-5.6,5.4-10.1,4.9l-147.3-16.5l-0.2-15.3L1350.6,1765.9z"/>
		<path class="st3" d="M997.9,1738.7l-0.2,15.6l-151.4,17c-4.3,0.5-7.7-1.8-9.2-5L997.9,1738.7z"/>
	</g>
	<circle class="st7" cx="888.4" cy="344.8" r="131.3"/>
	<circle class="st7" cx="1543.4" cy="785" r="37"/>
	<circle class="st7" cx="511.1" cy="412.9" r="37"/>
	<circle class="st7" cx="474.4" cy="1324.8" r="37"/>
	<g>
		<path class="st2" d="M869.8,376.9c-6.5,0-11.2-5.9-10.1-12.2c0.2-0.9,0.4-1.8,0.6-2.7c1.1-4.7,3.1-9,6.1-13c3-4,7.3-7.5,12.7-10.6
			c2.3-1.5,5.4-3.2,9.1-5.2c3.7-2,7.4-4.2,10.9-6.8c3.5-2.6,6.5-5.6,8.9-9.2c2.4-3.5,3.6-7.6,3.6-12.2s-1.1-8.5-3.4-11.6
			c-2.2-3.1-5.2-5.5-8.8-7.2c-3.6-1.6-7.5-2.5-11.6-2.5c-4.8,0-9.2,1-13,3.1c-3.8,2.1-7.1,4.6-9.8,7.6c-0.5,0.5-1,1.1-1.4,1.7
			c-3.4,4.1-9.3,4.9-13.6,1.9l-5.8-4c-4.7-3.2-5.8-9.7-2.6-14.4c2.1-3.1,4.6-5.9,7.3-8.4c5.3-4.8,11.3-8.5,18.3-11
			c6.9-2.5,14.1-3.7,21.6-3.7c6.3,0,12.6,1,18.7,2.9c6.2,1.9,11.8,4.8,16.8,8.8c5,4,9,9,12,15.1c3,6.1,4.5,13.5,4.5,22.1
			c0,5.3-0.6,10-1.9,14.1c-1.3,4.1-3,7.8-5.3,11c-2.3,3.2-5,6.2-8.4,8.8c-3.3,2.6-6.9,5.2-10.7,7.7c-4.3,2.6-8.7,5.2-13.1,7.7
			c-4.4,2.5-8.1,5.4-11,8.8c-1.5,1.7-2.6,3.7-3.3,5.9c-1.4,4.4-5.2,7.6-9.8,7.6H869.8z M859.2,424.9v-14c0-5.6,4.6-10.2,10.2-10.2
			h7.3c5.6,0,10.2,4.6,10.2,10.2v14c0,5.6-4.6,10.2-10.2,10.2h-7.3C863.7,435.1,859.2,430.6,859.2,424.9z"/>
	</g>
	<g>
		<path class="st2" d="M1301.9,521.4c-8.9-1.1-14.4-10.1-11.7-18.7c0.4-1.2,0.8-2.5,1.3-3.7c2.3-6.3,5.9-11.9,10.8-16.8
			c4.8-4.9,11.3-9.1,19.5-12.4c3.5-1.6,8-3.5,13.5-5.6c5.5-2.1,10.9-4.6,16.2-7.5c5.3-2.9,9.9-6.6,13.9-11.1c4-4.5,6.4-9.9,7.2-16.3
			c0.8-6.4-0.1-11.9-2.6-16.6c-2.6-4.7-6.2-8.5-10.8-11.5c-4.7-2.9-9.9-4.7-15.6-5.5c-6.7-0.9-12.8-0.2-18.5,2
			c-5.7,2.2-10.6,5.1-14.8,8.8c-0.8,0.7-1.5,1.3-2.3,2c-5.4,5-13.7,5.1-19.1,0.2l-7.3-6.6c-5.9-5.3-6.3-14.4-1-20.3
			c3.5-3.9,7.3-7.3,11.6-10.3c8.1-5.7,17.2-9.7,27.1-12c10-2.2,20.2-2.7,30.5-1.4c8.7,1.1,17.2,3.5,25.4,7.2
			c8.2,3.7,15.4,8.8,21.6,15.1c6.2,6.4,10.8,14,13.9,23c3.1,9,3.8,19.4,2.3,31.3c-0.9,7.3-2.6,13.7-5.1,19.2
			c-2.5,5.5-5.5,10.3-9.2,14.3c-3.7,4.1-8.1,7.6-13.1,10.7c-5.1,3.1-10.5,6-16.2,8.7c-6.5,2.9-12.9,5.7-19.5,8.3
			c-6.5,2.6-12.1,6-16.7,10.2c-2.3,2.1-4.2,4.6-5.6,7.6c-2.7,5.8-8.5,9.6-14.9,8.8L1301.9,521.4z M1278.7,585.8l2.5-19.4
			c1-7.8,8.1-13.3,15.9-12.3l10.1,1.3c7.8,1,13.3,8.1,12.3,15.9l-2.5,19.4c-1,7.8-8.1,13.3-15.9,12.3l-10.1-1.3
			C1283.2,600.7,1277.7,593.6,1278.7,585.8z"/>
	</g>
	<g>
		<path class="st2" d="M1379.8,1266.8c-5.6-0.7-9.1-6.4-7.4-11.8c0.2-0.8,0.5-1.6,0.8-2.3c1.5-4,3.7-7.5,6.8-10.7
			c3.1-3.1,7.2-5.8,12.3-7.9c2.2-1,5.1-2.2,8.6-3.5c3.5-1.3,6.9-2.9,10.3-4.7c3.3-1.8,6.3-4.2,8.8-7c2.5-2.8,4-6.3,4.5-10.3
			c0.5-4,0-7.6-1.7-10.5c-1.6-3-3.9-5.4-6.9-7.3c-3-1.8-6.2-3-9.9-3.5c-4.2-0.5-8.1-0.1-11.7,1.3c-3.6,1.4-6.7,3.3-9.4,5.6
			c-0.5,0.4-1,0.9-1.4,1.3c-3.4,3.2-8.7,3.2-12.1,0.1l-4.6-4.2c-3.7-3.4-4-9.1-0.6-12.8c2.2-2.5,4.7-4.6,7.3-6.5
			c5.1-3.6,10.9-6.2,17.2-7.6c6.3-1.4,12.8-1.7,19.3-0.9c5.5,0.7,10.9,2.2,16.1,4.6c5.2,2.4,9.7,5.5,13.7,9.6
			c3.9,4,6.9,8.9,8.8,14.6c1.9,5.7,2.4,12.3,1.5,19.8c-0.6,4.6-1.7,8.7-3.2,12.2c-1.6,3.5-3.5,6.5-5.8,9.1c-2.3,2.6-5.1,4.8-8.3,6.8
			c-3.2,1.9-6.6,3.8-10.3,5.5c-4.1,1.8-8.2,3.6-12.3,5.3c-4.1,1.7-7.7,3.8-10.6,6.5c-1.5,1.3-2.6,2.9-3.5,4.8
			c-1.7,3.7-5.4,6.1-9.4,5.5L1379.8,1266.8z M1365.2,1307.6l1.6-12.3c0.6-4.9,5.2-8.4,10.1-7.8l6.4,0.8c4.9,0.6,8.4,5.2,7.8,10.1
			l-1.6,12.3c-0.6,4.9-5.2,8.4-10.1,7.8l-6.4-0.8C1368,1317.1,1364.5,1312.6,1365.2,1307.6z"/>
	</g>
	<g>
		<path class="st2" d="M766.7,821.4c-5,2.7-11.2,0.1-12.9-5.4c-0.3-0.8-0.5-1.6-0.7-2.4c-1.1-4.1-1.3-8.3-0.6-12.6
			c0.7-4.3,2.5-8.8,5.5-13.6c1.2-2.1,2.9-4.7,4.9-7.8c2.1-3.1,4-6.4,5.6-9.8c1.7-3.4,2.7-7,3.1-10.8c0.4-3.8-0.3-7.4-2.3-11
			s-4.4-6.1-7.4-7.6c-3.1-1.5-6.3-2.2-9.8-2c-3.5,0.2-6.8,1.2-10.1,2.9c-3.8,2-6.7,4.6-8.8,7.8c-2.1,3.2-3.6,6.5-4.4,10
			c-0.2,0.6-0.3,1.3-0.4,1.9c-0.9,4.6-5.2,7.6-9.8,7.1l-6.2-0.7c-5-0.6-8.5-5.1-8-10.1c0.4-3.3,1.1-6.5,2.2-9.6
			c2.1-5.9,5.3-11.3,9.6-16.1c4.3-4.8,9.4-8.8,15.3-11.9c4.9-2.6,10.2-4.5,15.8-5.6c5.6-1.1,11.2-1.1,16.7-0.1
			c5.5,1,10.7,3.3,15.6,6.8c4.9,3.5,9.1,8.6,12.7,15.3c2.2,4.1,3.7,8,4.4,11.8c0.7,3.7,0.9,7.3,0.5,10.8c-0.4,3.4-1.4,6.9-2.9,10.3
			c-1.5,3.4-3.2,6.9-5.2,10.4c-2.3,3.9-4.6,7.7-7,11.4c-2.4,3.8-4,7.6-4.9,11.4c-0.4,1.9-0.5,3.9-0.1,6c0.7,4-0.9,8.1-4.5,10
			L766.7,821.4z M778.4,863.1l-5.8-10.9c-2.3-4.4-0.7-9.9,3.7-12.2l5.7-3c4.4-2.3,9.9-0.7,12.2,3.7l5.8,10.9
			c2.3,4.4,0.7,9.9-3.7,12.2l-5.7,3C786.2,869.2,780.7,867.5,778.4,863.1z"/>
	</g>
</g>
</svg>
